<svg width="983" height="512" viewBox="0 0 983 512" fill="none" xmlns="http://www.w3.org/2000/svg">
<path d="M243.309 81C266.381 81 285.085 99.7051 285.085 122.777V177.087C285.085 195.792 272.791 211.625 255.842 216.948V198.797C263.334 194.463 268.374 186.364 268.375 177.087V122.777C268.374 108.934 257.152 97.7119 243.309 97.7119C229.466 97.7119 218.244 108.934 218.244 122.777V177.087C218.244 185.473 222.363 192.895 228.687 197.445V216.229C212.827 210.302 201.533 195.015 201.533 177.087V122.777C201.533 99.7051 220.237 81 243.309 81Z" fill="#03345D"/>
<path d="M420.001 393.806C410.612 414.882 385.916 424.357 364.84 414.968L315.23 392.869C298.143 385.257 288.684 367.584 290.717 349.936L307.298 357.322C308.209 365.929 313.556 373.829 322.03 377.604L371.64 399.703C384.285 405.336 399.103 399.652 404.736 387.006C410.369 374.361 404.684 359.544 392.039 353.911L342.429 331.811C334.769 328.399 326.312 329.141 319.583 333.067L302.424 325.423C314.292 313.347 332.852 309.252 349.229 316.546L398.839 338.646C419.914 348.034 429.389 372.731 420.001 393.806Z" fill="#03345D"/>
<path d="M230.776 245.368C223.592 249.525 218.664 257.144 218.272 265.945L201.533 272.285V267.079C201.533 248.374 213.827 232.541 230.776 227.217V245.368ZM257.931 227.936C273.791 233.863 285.085 249.152 285.085 267.079V272.285L268.346 265.945C267.993 258.026 263.969 251.064 257.931 246.72V227.936Z" fill="#03345D"/>
<path d="M262.466 315.304L271.84 287.794L243.607 306.238L262.466 315.304Z" fill="#03355C"/>
<path d="M293.194 289.883L313.716 294.004L308.453 302.489L293.194 289.883Z" fill="#03355C"/>
<path d="M252.91 270.427L255.259 280.041L272.699 280.787L261.041 267.811L252.91 270.427Z" fill="#03355C"/>
<path d="M223.126 295.633L221.67 313.634L209.619 296.371L217.541 288.085L223.126 295.633Z" fill="#03355C"/>
<path d="M193.178 335.942L208.526 321.53L201.729 337.659L193.178 335.942Z" fill="#03355C"/>
<path d="M174.259 300.586L198.215 325.326L172.642 317.309L174.259 300.586Z" fill="#03355C"/>
<path d="M199.859 289.663L181.642 286.297L190.976 278.466L199.859 289.663Z" fill="#03355C"/>
<rect x="234.954" y="183.353" width="16.7105" height="66.8421" rx="8.35526" fill="#03355C"/>
<path d="M320.291 340.444C323.595 341.99 325.406 345.601 324.669 349.173C323.608 354.313 317.914 356.999 313.273 354.549L297.037 345.977C293.455 344.086 289.406 343.259 285.369 343.594L267.692 345.062C262.394 345.502 258.162 340.725 259.236 335.519C259.96 332.009 262.94 329.415 266.517 329.183L286.175 327.905C290.387 327.631 294.6 328.425 298.423 330.214L320.291 340.444Z" fill="#03355C"/>
<path d="M220.333 349.028C220.333 362.872 231.555 374.094 245.398 374.094C258.696 374.094 269.572 363.738 270.409 350.651L287.174 348.984V349.028C287.174 372.1 268.47 390.805 245.398 390.805C222.326 390.805 203.622 372.101 203.622 349.028V347.732L220.333 342.189V349.028ZM287.149 293.336C287.164 293.795 287.174 294.256 287.174 294.719V323.834L270.463 325.496V315.445L287.149 293.336Z" fill="#03345D"/>
<path d="M320.886 282.086V222.84H337.318V282.086H320.886ZM329.141 215.203C326.698 215.203 324.602 214.393 322.853 212.773C321.131 211.127 320.269 209.16 320.269 206.871C320.269 204.608 321.131 202.667 322.853 201.047C324.602 199.401 326.698 198.578 329.141 198.578C331.584 198.578 333.666 199.401 335.389 201.047C337.138 202.667 338.012 204.608 338.012 206.871C338.012 209.16 337.138 211.127 335.389 212.773C333.666 214.393 331.584 215.203 329.141 215.203ZM350.789 282.086V203.091H367.221V232.792H367.722C368.442 231.197 369.484 229.577 370.847 227.932C372.235 226.26 374.035 224.872 376.247 223.766C378.484 222.634 381.261 222.069 384.578 222.069C388.898 222.069 392.884 223.2 396.535 225.463C400.187 227.7 403.105 231.082 405.291 235.607C407.477 240.107 408.57 245.752 408.57 252.54C408.57 259.149 407.503 264.729 405.368 269.281C403.26 273.806 400.38 277.239 396.728 279.579C393.103 281.894 389.04 283.051 384.54 283.051C381.351 283.051 378.638 282.524 376.401 281.469C374.189 280.415 372.377 279.091 370.962 277.496C369.548 275.876 368.468 274.244 367.722 272.598H366.989V282.086H350.789ZM366.874 252.463C366.874 255.986 367.362 259.059 368.339 261.682C369.317 264.305 370.731 266.349 372.582 267.815C374.434 269.255 376.684 269.975 379.332 269.975C382.007 269.975 384.27 269.242 386.121 267.776C387.972 266.285 389.374 264.228 390.325 261.605C391.302 258.956 391.791 255.909 391.791 252.463C391.791 249.043 391.315 246.035 390.364 243.437C389.412 240.84 388.011 238.809 386.16 237.343C384.308 235.877 382.032 235.145 379.332 235.145C376.658 235.145 374.395 235.852 372.544 237.266C370.718 238.68 369.317 240.686 368.339 243.283C367.362 245.88 366.874 248.94 366.874 252.463ZM419.534 282.086V222.84H435.464V233.177H436.081C437.161 229.5 438.974 226.723 441.52 224.846C444.066 222.943 446.997 221.992 450.314 221.992C451.137 221.992 452.024 222.043 452.976 222.146C453.927 222.249 454.763 222.39 455.483 222.57V237.15C454.711 236.919 453.644 236.713 452.281 236.533C450.919 236.353 449.671 236.263 448.54 236.263C446.123 236.263 443.963 236.79 442.06 237.845C440.183 238.873 438.691 240.313 437.586 242.165C436.506 244.016 435.966 246.15 435.966 248.568V282.086H419.534ZM488.221 283.244C482.126 283.244 476.881 282.009 472.483 279.541C468.112 277.046 464.743 273.524 462.378 268.972C460.012 264.395 458.829 258.982 458.829 252.733C458.829 246.639 460.012 241.29 462.378 236.687C464.743 232.084 468.073 228.497 472.368 225.926C476.688 223.354 481.754 222.069 487.565 222.069C491.474 222.069 495.112 222.699 498.481 223.959C501.875 225.193 504.832 227.057 507.352 229.552C509.898 232.046 511.878 235.183 513.292 238.963C514.707 242.717 515.414 247.115 515.414 252.155V256.668H465.386V246.485H499.947C499.947 244.119 499.432 242.023 498.404 240.197C497.375 238.372 495.948 236.945 494.122 235.916C492.322 234.862 490.226 234.335 487.835 234.335C485.341 234.335 483.129 234.913 481.201 236.07C479.298 237.202 477.806 238.732 476.726 240.66C475.646 242.563 475.093 244.685 475.068 247.025V256.706C475.068 259.638 475.608 262.171 476.688 264.305C477.793 266.439 479.349 268.085 481.355 269.242C483.361 270.399 485.739 270.978 488.491 270.978C490.316 270.978 491.988 270.721 493.505 270.206C495.022 269.692 496.321 268.921 497.401 267.892C498.481 266.863 499.304 265.603 499.869 264.112L515.067 265.115C514.295 268.766 512.714 271.955 510.322 274.681C507.957 277.381 504.897 279.489 501.142 281.006C497.414 282.498 493.107 283.244 488.221 283.244Z" fill="#03355C"/>
<path d="M531.857 304.304V222.84H548.057V232.792H548.79C549.51 231.197 550.551 229.577 551.914 227.932C553.302 226.26 555.103 224.872 557.314 223.766C559.551 222.634 562.328 222.069 565.645 222.069C569.966 222.069 573.951 223.2 577.603 225.463C581.254 227.7 584.173 231.082 586.359 235.607C588.544 240.107 589.637 245.752 589.637 252.54C589.637 259.149 588.57 264.729 586.436 269.281C584.327 273.806 581.447 277.239 577.796 279.579C574.17 281.894 570.107 283.051 565.607 283.051C562.418 283.051 559.705 282.524 557.468 281.469C555.257 280.415 553.444 279.091 552.03 277.496C550.615 275.876 549.535 274.244 548.79 272.598H548.288V304.304H531.857ZM547.941 252.463C547.941 255.986 548.43 259.059 549.407 261.682C550.384 264.305 551.798 266.349 553.65 267.815C555.501 269.255 557.751 269.975 560.4 269.975C563.074 269.975 565.337 269.242 567.188 267.776C569.04 266.285 570.441 264.228 571.393 261.605C572.37 258.956 572.858 255.909 572.858 252.463C572.858 249.043 572.383 246.035 571.431 243.437C570.48 240.84 569.078 238.809 567.227 237.343C565.375 235.877 563.1 235.145 560.4 235.145C557.725 235.145 555.463 235.852 553.611 237.266C551.785 238.68 550.384 240.686 549.407 243.283C548.43 245.88 547.941 248.94 547.941 252.463ZM600.592 282.086V222.84H616.522V233.177H617.139C618.219 229.5 620.032 226.723 622.578 224.846C625.123 222.943 628.055 221.992 631.372 221.992C632.195 221.992 633.082 222.043 634.033 222.146C634.985 222.249 635.821 222.39 636.541 222.57V237.15C635.769 236.919 634.702 236.713 633.339 236.533C631.976 236.353 630.729 236.263 629.598 236.263C627.18 236.263 625.02 236.79 623.118 237.845C621.24 238.873 619.749 240.313 618.643 242.165C617.563 244.016 617.023 246.15 617.023 248.568V282.086H600.592ZM669.278 283.244C663.184 283.244 657.938 282.009 653.541 279.541C649.17 277.046 645.801 273.524 643.435 268.972C641.07 264.395 639.887 258.982 639.887 252.733C639.887 246.639 641.07 241.29 643.435 236.687C645.801 232.084 649.131 228.497 653.425 225.926C657.745 223.354 662.811 222.069 668.623 222.069C672.531 222.069 676.17 222.699 679.539 223.959C682.933 225.193 685.89 227.057 688.41 229.552C690.956 232.046 692.936 235.183 694.35 238.963C695.765 242.717 696.472 247.115 696.472 252.155V256.668H646.444V246.485H681.004C681.004 244.119 680.49 242.023 679.461 240.197C678.433 238.372 677.006 236.945 675.18 235.916C673.38 234.862 671.284 234.335 668.893 234.335C666.398 234.335 664.187 234.913 662.258 236.07C660.356 237.202 658.864 238.732 657.784 240.66C656.704 242.563 656.151 244.685 656.125 247.025V256.706C656.125 259.638 656.665 262.171 657.745 264.305C658.851 266.439 660.407 268.085 662.413 269.242C664.418 270.399 666.797 270.978 669.548 270.978C671.374 270.978 673.046 270.721 674.563 270.206C676.08 269.692 677.379 268.921 678.459 267.892C679.539 266.863 680.361 265.603 680.927 264.112L696.125 265.115C695.353 268.766 693.772 271.955 691.38 274.681C689.014 277.381 685.954 279.489 682.2 281.006C678.471 282.498 674.164 283.244 669.278 283.244ZM707.195 304.304V222.84H723.395V232.792H724.128C724.848 231.197 725.889 229.577 727.252 227.932C728.641 226.26 730.441 224.872 732.652 223.766C734.889 222.634 737.666 222.069 740.984 222.069C745.304 222.069 749.289 223.2 752.941 225.463C756.592 227.7 759.511 231.082 761.697 235.607C763.882 240.107 764.975 245.752 764.975 252.54C764.975 259.149 763.908 264.729 761.774 269.281C759.665 273.806 756.785 277.239 753.134 279.579C749.508 281.894 745.445 283.051 740.945 283.051C737.756 283.051 735.044 282.524 732.806 281.469C730.595 280.415 728.782 279.091 727.368 277.496C725.953 275.876 724.873 274.244 724.128 272.598H723.626V304.304H707.195ZM723.279 252.463C723.279 255.986 723.768 259.059 724.745 261.682C725.722 264.305 727.136 266.349 728.988 267.815C730.839 269.255 733.089 269.975 735.738 269.975C738.412 269.975 740.675 269.242 742.526 267.776C744.378 266.285 745.779 264.228 746.731 261.605C747.708 258.956 748.197 255.909 748.197 252.463C748.197 249.043 747.721 246.035 746.769 243.437C745.818 240.84 744.417 238.809 742.565 237.343C740.714 235.877 738.438 235.145 735.738 235.145C733.064 235.145 730.801 235.852 728.949 237.266C727.123 238.68 725.722 240.686 724.745 243.283C723.768 245.88 723.279 248.94 723.279 252.463Z" fill="#155C89"/>
</svg>
