<svg width="512" height="512" viewBox="0 0 512 512" fill="none" xmlns="http://www.w3.org/2000/svg">
<path d="M189.512 46C217.126 46 239.512 68.3858 239.512 96V161C239.512 183.204 225.039 202.027 205.012 208.551V186.689C213.702 181.435 219.512 171.896 219.512 161V96C219.512 79.4315 206.08 66.0001 189.512 66C172.943 66 159.512 79.4315 159.512 96V161C159.512 171.896 165.321 181.435 174.012 186.689V208.551C153.985 202.027 139.512 183.204 139.512 161V96C139.512 68.3858 161.897 46 189.512 46Z" fill="#03345D"/>
<path d="M400.919 420.255C389.687 445.482 360.132 456.827 334.905 445.595L275.524 419.157C255.24 410.126 243.931 389.248 246.117 368.3L266.088 377.191C267.354 387.267 273.705 396.455 283.659 400.887L343.039 427.324C358.175 434.063 375.909 427.256 382.648 412.12C389.387 396.984 382.58 379.251 367.444 372.512L308.063 346.074C298.109 341.642 287.033 343.07 278.698 348.872L258.726 339.98C272.831 324.338 295.914 318.772 316.198 327.803L375.578 354.241C400.805 365.473 412.151 395.028 400.919 420.255Z" fill="#03345D"/>
<path d="M174 243.328C165.946 248.417 160.481 257.232 160.03 267.352L140 274.938V268.707C140 246.689 154.233 227.994 174 221.322V243.328ZM205 220.997C225.285 227.368 240 246.319 240 268.707V274.938L219.969 267.352C219.5 256.818 213.6 247.697 205 242.722V220.997Z" fill="#03345D"/>
<path d="M212.44 326.426L223.66 293.5L189.868 315.575L212.44 326.426Z" fill="#03355C"/>
<path d="M249.216 296L273.779 300.933L267.48 311.089L249.216 296Z" fill="#03355C"/>
<path d="M201.003 272.715L203.815 284.221L224.687 285.114L210.734 269.584L201.003 272.715Z" fill="#03355C"/>
<path d="M165.355 302.883L163.613 324.427L149.189 303.765L158.671 293.849L165.355 302.883Z" fill="#03355C"/>
<path d="M129.512 351.126L147.881 333.877L139.746 353.181L129.512 351.126Z" fill="#03355C"/>
<path d="M106.869 308.811L135.541 338.421L104.934 328.825L106.869 308.811Z" fill="#03355C"/>
<path d="M137.509 295.737L115.706 291.709L126.877 282.336L137.509 295.737Z" fill="#03355C"/>
<rect x="179.512" y="168.5" width="20" height="80" rx="10" fill="#03355C"/>
<path d="M280.396 356.573C284.478 358.38 286.747 362.79 285.845 367.162C284.586 373.267 277.881 376.518 272.308 373.725L252.672 363.888C248.472 361.783 243.773 360.876 239.091 361.264L217.694 363.041C211.353 363.568 206.288 357.851 207.573 351.62C208.44 347.419 212.007 344.315 216.287 344.037L240.146 342.486C244.977 342.172 249.812 343.031 254.238 344.991L280.396 356.573Z" fill="#03355C"/>
<path d="M160.012 366.789C160.012 383.357 173.443 396.789 190.012 396.789C205.927 396.788 218.945 384.395 219.946 368.732L240.012 366.737V366.789C240.012 394.403 217.626 416.788 190.012 416.789C162.398 416.789 140.012 394.403 140.012 366.789V365.238L160.012 358.603V366.789ZM239.983 300.132C240.001 300.682 240.012 301.234 240.012 301.789V336.636L220.012 338.625V326.594L239.983 300.132Z" fill="#03345D"/>
</svg>
